PathFileType	4	(X/Y/Z)	Patient5_TMGait_0pt45_1_right_07.trc.trc
DataRate	CameraRate	NumFrames	NumMarkers	Units	OrigDataRate	OrigDataStartFrame	OrigNumFrames
59.071729957806	59.071729957806	6	32	mm	59.071729957806	124	       141
Frame#	Time	R.ASIS			L.ASIS			Chest			R.Shoulder			Neck			L.Shoulder			L.Elbow			L.Wrist			R.Elbow			R.Wrist			L.Thigh.Superior			L.Thigh.Lateral			L.Thigh.Inferior			L.Patella			L.Shank.Superior			L.Shank.Lateral			L.Shank.Inferior			L.Heel			L.Midfoot.Lateral			L.Midfoot.Superior			L.Toe			R.Thigh.Superior			R.Thigh.Lateral			R.Thigh.Inferior			R.Patella			R.Shank.Superior			R.Shank.Lateral			R.Shank.Inferior			R.Heel			R.Midfoot.Lateral			R.Midfoot.Superior			R.Toe			
		X1	Y1	Z1	X2	Y2	Z2	X3	Y3	Z3	X4	Y4	Z4	X5	Y5	Z5	X6	Y6	Z6	X7	Y7	Z7	X8	Y8	Z8	X9	Y9	Z9	X10	Y10	Z10	X11	Y11	Z11	X12	Y12	Z12	X13	Y13	Z13	X14	Y14	Z14	X15	Y15	Z15	X16	Y16	Z16	X17	Y17	Z17	X18	Y18	Z18	X19	Y19	Z19	X20	Y20	Z20	X21	Y21	Z21	X22	Y22	Z22	X23	Y23	Z23	X24	Y24	Z24	X25	Y25	Z25	X26	Y26	Z26	X27	Y27	Z27	X28	Y28	Z28	X29	Y29	Z29	X30	Y30	Z30	X31	Y31	Z31	X32	Y32	Z32	

124	13.252214285714	1035.671928892772	979.872995242364	538.832710704878	1014.618654730006	953.167931927100	297.691378501538	1059.038232893044	1435.130767338696	421.392093948684	957.575277374559	1492.497945454526	590.471676245658	929.270157625054	1550.898364579992	407.399822619403	987.234492637212	1496.765688976089	225.236251614986	917.690049870162	1178.440768257360	93.549058151393	1036.580424892582	914.840980781317	91.592638631832	880.148198659086	1172.342856068180	731.336599943306	1096.794874559022	992.896094814824	657.846494012778	991.785989006949	725.078082864472	295.075368004076	896.140117470140	671.271828704647	263.004296606140	956.827085822901	598.194220383853	317.046911800747	917.197505316137	481.366660626120	322.042773737993	849.884661270568	393.586953749493	349.594056538366	756.966564675423	346.386714839894	282.240272934342	790.617317546203	282.730087254362	365.703214157138	608.900004439787	67.330779724561	375.996951906414	696.660168594068	32.975613326966	320.041340965718	796.161723011179	90.482833131221	359.185123254319	897.022713438259	45.475940116509	372.997430406109	1092.210888141523	755.131022154911	565.071755305266	1025.829918119191	663.502957878339	621.167583336469	1113.540926215688	628.671375696161	546.326469562943	1134.910735155620	531.742701118316	578.116449473977	1103.432424591908	424.542120673765	538.845966110863	1033.837471405064	348.560724225093	615.621498071779	1096.402344437201	284.261667973511	534.731370613609	992.271519463200	55.916015957469	495.665955160873	1069.777031196128	24.874038027650	568.904334910039	1174.034476731997	93.870869588567	555.013336169167	1278.742281545752	52.807201025188	555.279265581684	
125	13.269142857143	1037.900938240339	977.593552263475	541.706754592466	1015.211522284039	951.923051257927	300.597422740631	1060.650732271918	1433.843746407887	425.070473755002	960.648963732823	1490.740706795738	595.217402418923	930.598177721789	1549.637824910010	412.428119007525	986.478436354390	1495.690320222989	229.546310461485	912.219465770873	1178.752844591278	97.441832786235	1027.571863139976	913.546607812956	92.357024972060	885.171773200202	1169.884659561530	735.760151880832	1100.927163862988	990.295168240480	659.955450840995	991.712112751870	724.221731780996	297.023379145911	895.676426505168	670.875014885674	264.955071618691	956.297189858918	597.360277635552	318.421012918902	915.599474972752	479.611011358048	322.788786408482	847.024247138263	392.944453284861	350.171008958873	753.226520873565	347.359836445360	282.836900186879	786.210493154233	282.717062336838	365.714759182512	601.807062687797	69.378486001637	375.875511417015	689.317807305647	34.095716202263	320.010813792864	789.226048777209	90.790969700489	358.930190642781	889.458169606881	45.430739334647	372.969104347647	1092.229360124313	751.874182710660	565.768582289021	1025.545588381489	660.494784758795	621.506488726695	1112.578489013549	625.473384480821	545.778689485903	1133.205288205985	527.945762136096	576.346025895913	1100.353696165248	421.330786862356	536.683206359269	1031.140028368728	345.602865307805	613.848840401914	1092.025889299196	281.236813366907	531.723822649344	985.186240390889	53.785904943191	492.453390114700	1062.129336537590	24.140915650253	566.654910756647	1167.389165767890	91.129558670245	550.202244713858	1271.657105248019	48.552853069300	551.922552742708	
126	13.286071428571	1040.015775823720	975.881298017091	544.593114814546	1015.796993204552	951.114922913176	303.641582978427	1062.583665857373	1432.964866341516	428.884656275306	964.090055306693	1489.476317798160	600.046392224487	932.402628327342	1548.908008514980	417.519034824888	986.144701945545	1495.056240743403	233.996051174960	907.015692052842	1179.475837961613	101.884432684279	1018.715542379770	912.722399935721	93.421519683533	890.650164489595	1167.911113334055	740.298238224124	1105.223712296089	987.863177136103	662.191501383985	992.273324787811	723.795319550626	299.180480508786	896.128310397917	670.639263176772	266.920786947820	956.818489038195	596.841519585588	319.907376711238	915.354639790442	477.731140765290	323.447807102021	845.253721578773	392.301987682376	350.650045386283	750.581721662303	348.496947159811	283.272259414311	782.620658488316	282.979745459047	365.794140762908	594.996112112019	72.234399753396	375.681748569230	682.137686042004	35.621213691278	319.970933345841	782.672952615250	91.135143524005	358.641641988797	881.967240004849	45.317614616053	372.975226630084	1092.594311615597	749.608136934382	566.709551322588	1026.005818255698	658.511396236166	622.454123165585	1112.330574248503	623.351443967833	545.774769045771	1132.387634633543	525.229345370420	575.258751611401	1097.886262114753	419.040957364636	535.469339383748	1029.172130802503	343.761343155350	613.295644256537	1088.022194498181	279.176800668694	529.819680103386	978.075067876757	52.534510964196	490.584333877509	1054.626532380486	24.060340647039	565.512565647338	1160.698847104220	89.378637045984	546.837765525543	1264.591807443307	45.592937717705	549.740044013374	
127	13.303000000000	1041.993983861424	974.815157529981	547.507828108863	1016.358484989356	950.877049347044	306.789434364777	1064.798436079559	1432.586951335176	432.796103896025	967.864948958691	1488.820981512215	604.911145912148	934.654365575620	1548.799518124614	422.628615969329	986.270968046835	1495.000921982318	238.550787279257	902.122932372012	1180.752412183236	106.849795003040	1010.052717829767	912.508555475854	94.853186822187	896.495102017813	1166.598930324747	744.952186151471	1109.648698469993	985.866251573864	664.499579883235	993.489440569497	723.875262264808	301.447504587378	897.565278284221	670.605829590693	268.781579240036	958.522510623227	596.699441847160	321.354503808438	916.688496598094	475.770888768025	323.801726975318	844.783169073438	391.673822294087	350.851599781445	749.205118214012	349.850310752529	283.414440444098	780.029945159244	283.617610835638	365.870956015168	588.578553468970	76.128513604558	375.343926269815	675.158847994477	37.643030803526	319.886803155141	776.600690566736	91.490151537235	358.256683265971	874.538650134871	45.130465763925	373.017085643708	1093.285138376761	748.296421109185	568.208501183348	1026.887060353974	657.483073261827	624.041417412211	1112.701015889244	622.197350074172	546.624085529991	1132.134717390227	523.471347374093	575.180391908114	1095.835483885038	417.604664838231	535.337862358119	1027.504170022366	342.924011370295	613.883365408482	1084.222532045354	278.000358470273	529.093875482633	970.891802627486	52.064675614316	489.864026069500	1047.227628537746	24.348183419508	565.216452660607	1153.891553187573	88.442896641171	544.933807937046	1257.485088951764	43.802821748047	548.611129358750	
128	13.319928571429	1043.848903900249	974.368585582578	550.470712286872	1016.888189886341	951.257092434685	310.013271478104	1067.243435835438	1432.724989378092	436.765170515488	971.930225404749	1488.800675723438	609.773593178639	937.288214602158	1549.311669371489	427.735092879818	986.861992524834	1495.583462780206	243.182776397866	897.583878334819	1182.666651826551	112.245179277012	1001.658369217356	912.991943203626	96.723687107359	902.570045202681	1166.046605178964	749.740709320234	1114.168760702153	984.559028632707	666.836314044982	995.370641906112	724.465014029322	303.662876752833	900.006308826467	670.771721891427	270.397483367622	961.504457055617	596.926825184200	322.533769244114	919.789148653260	473.758856047668	323.577580873177	845.811699397146	391.042834316385	350.568780487538	749.251464372331	351.445121840739	283.115041285327	778.616977645726	284.671714520319	365.799259298605	582.692555781100	81.278622438029	374.773662338344	668.426268705453	40.257682414936	319.710816285269	771.087273652044	91.830990544382	357.707682829619	867.153184793910	44.866891532900	373.090655495696	1094.186998565549	747.733587785582	570.564003202370	1027.686322244127	657.195709113683	626.207124805672	1113.401746102247	621.735221797676	548.537651229941	1131.944748209680	522.402932106982	576.301681560255	1093.893618705829	416.838470847073	536.254318437910	1025.598587792303	342.834413770477	615.344019176720	1080.397405001831	277.506424305287	529.444349108947	963.609937745678	52.171275095347	489.971319298877	1039.879887379627	24.769444733476	565.469691196301	1146.918271052776	88.090635893674	544.266267364385	1250.289596154141	42.935900149591	548.289432498774	
129	13.336857142857	1045.612450011448	974.409487693962	553.485767590044	1017.372220585349	952.191725224008	313.298426687418	1069.859523490509	1433.307904917496	440.754296774331	976.237243874284	1489.337339423826	614.609894991323	940.210525503417	1550.346689922601	432.841596793815	987.872755108337	1496.762660587021	247.873142532780	893.431955167992	1185.212843072331	117.920129902386	993.640068308466	914.176284515339	99.095769910156	908.711123569066	1166.241529202890	754.691706942569	1118.757374862056	984.123207279804	669.185341237985	997.926308720118	725.488131745676	305.624833890996	903.433819333222	671.079441740306	271.625591140655	965.828624919348	597.446220624199	323.177747712509	924.803116288772	471.706852523458	322.510761995096	848.520771890828	390.365960254330	349.613820769373	750.868410439980	353.272829155388	282.239690938837	778.552657132423	286.123704211061	365.390381006476	577.512461669176	87.885658642497	373.880772563450	662.002243743160	43.585892427017	319.388514755073	766.191055436113	92.154980198895	356.936990954313	859.796365649197	44.524412846676	373.185106480168	1095.078050790618	747.607285046801	573.922028925930	1027.853040966967	657.358994652121	628.802018104239	1113.980611660447	621.611781226933	551.512757558318	1131.250595627914	521.701880097568	578.573481516024	1091.691780551329	416.503216501814	538.008160756537	1022.952642211606	343.169571572930	617.296346137820	1076.299855866167	277.436299452532	530.614835033543	956.232345244324	52.599213979563	490.541315757621	1032.538927530273	25.167815925275	565.997628044274	1139.764521760286	88.085046439256	544.461599011436	1242.987843150438	42.696467207201	548.479382557589	
